<?xml version="1.0" standalone="no"?>
<!DOCTYPE svg PUBLIC "-//W3C//DTD SVG 20010904//EN"
 "http://www.w3.org/TR/2001/REC-SVG-20010904/DTD/svg10.dtd">
<svg version="1.0" xmlns="http://www.w3.org/2000/svg"
 width="1024.000000pt" height="1024.000000pt" viewBox="0 0 1024.000000 1024.000000"
 preserveAspectRatio="xMidYMid meet">
<metadata>
Created by potrace 1.14, written by Peter Selinger 2001-2017
</metadata>
<g transform="translate(0.000000,1024.000000) scale(0.100000,-0.100000)"
fill="#000000" stroke="none">
<path d="M0 5120 l0 -5120 5120 0 5120 0 0 5120 0 5120 -5120 0 -5120 0 0
-5120z m5240 2969 c97 -12 189 -36 275 -71 109 -45 3318 -1509 3410 -1556 125
-63 227 -166 283 -283 22 -46 45 -106 52 -134 9 -37 11 -362 10 -1294 -1
-1238 -1 -1244 -22 -1293 -37 -87 -116 -138 -213 -138 -97 0 -177 47 -216 127
l-24 48 -5 887 -5 887 -535 -243 -535 -243 -6 -674 c-6 -724 -5 -710 -60 -859
-85 -230 -300 -466 -584 -640 -741 -454 -1999 -595 -3037 -340 -711 175 -1224
510 -1413 923 -81 178 -85 222 -85 966 l0 627 -92 42 c-389 174 -1104 503
-1153 531 -112 63 -223 190 -268 305 -94 245 -43 500 137 681 39 39 96 85 126
102 53 30 3319 1519 3450 1573 166 68 335 91 510 69z"/>
<path d="M5055 7614 c-81 -13 -254 -89 -1838 -809 -1298 -591 -1708 -782
-1729 -804 -51 -57 -47 -151 9 -203 34 -31 3391 -1564 3483 -1590 79 -22 192
-23 271 -3 33 9 828 364 1767 790 1443 655 1712 780 1740 810 29 31 32 41 32
95 0 54 -3 64 -32 95 -28 29 -318 164 -1734 809 -936 426 -1724 781 -1752 790
-56 16 -170 27 -217 20z"/>
<path d="M3010 4063 c0 -274 4 -525 10 -558 32 -202 249 -419 575 -575 851
-407 2201 -407 3050 0 316 152 531 361 572 555 18 86 19 1079 1 1072 -7 -3
-386 -175 -843 -382 -456 -208 -864 -390 -906 -406 -211 -78 -479 -79 -688 -4
-38 14 -443 196 -901 405 -458 209 -842 382 -852 386 -17 5 -18 -15 -18 -493z"/>
</g>
</svg>
